<svg width="79" height="32" viewBox="0 0 79 32" fill="none" xmlns="http://www.w3.org/2000/svg">
<path d="M7.20289 4.4207L0.439739 4.35848L0.439731 8.84135H11.6481L0 23.7586V27.5522H7.20289V31.9214H11.5246V27.5521H18.8716C18.9333 27.3774 18.955 26.906 18.564 26.4743C17.9157 25.7546 17.4001 25.0025 16.9268 24.0567C16.7107 23.6352 16.5466 23.1303 16.4849 23.0892C15.0381 23.023 6.71477 23.0401 6.71926 22.9875L18.3777 7.97886V4.4207H11.5246V-1.90735e-06H7.20289V4.4207Z" fill="white"/>
<path d="M38.4121 2.33373C38.3092 2.37486 38.2783 4.64688 38.2783 13.2518C38.2783 24.8792 38.268 24.6839 38.7825 25.6811C39.2456 26.5755 40.3775 27.3774 41.6431 27.7064C42.3428 27.8914 44.4008 27.912 45.1931 27.7475C46.2118 27.5316 46.4073 27.2232 46.006 26.4316C45.7488 25.9381 45.4092 24.8586 45.3269 24.2624C45.2137 23.553 45.0697 23.4399 44.2053 23.4605C43.7937 23.4707 43.4027 23.4399 43.3307 23.3988C42.9088 23.1315 42.9088 23.0595 42.9088 12.6452C42.9088 5.95252 42.8779 2.59075 42.8059 2.4571C42.703 2.27205 42.5692 2.26177 40.6141 2.27205C39.472 2.27205 38.4738 2.30289 38.4121 2.33373Z" fill="white"/>
<path d="M47.8478 2.36455C47.7141 2.44679 47.6935 3.76271 47.6935 13.1798C47.6935 23.3268 47.7038 23.9436 47.889 24.653C48.2388 26.0512 49.0312 26.9044 50.5335 27.5316C51.1097 27.768 51.367 27.8091 52.5297 27.84C54.0835 27.8811 54.8758 27.768 55.6681 27.3671C56.4502 26.9867 56.4707 26.7194 55.8019 25.7427C55.5344 25.3521 55.1228 24.6838 54.8964 24.2623L54.4848 23.4913L53.7336 23.481C52.7973 23.4604 52.7046 23.4193 52.5297 22.9772C52.396 22.6791 52.3754 21.1473 52.3754 12.6452C52.3754 5.95249 52.3445 2.59072 52.2725 2.45708C52.1696 2.27202 52.0358 2.26174 50.0807 2.26174C48.9386 2.26174 47.9301 2.31314 47.8478 2.36455Z" fill="white"/>
<path d="M75.2189 4.57492C74.3854 4.9553 73.9532 5.61327 73.9429 6.52824C73.9326 7.30957 74.2516 7.90585 74.8999 8.32736C75.7025 8.87223 76.9887 8.71802 77.6576 7.99838C78.5116 7.0834 78.3367 5.50018 77.2871 4.79081C76.7418 4.42071 75.7848 4.32819 75.2189 4.57492ZM76.8653 4.9553C78.028 5.5413 78.2029 7.04228 77.2151 7.91613C76.7932 8.28623 76.4948 8.36848 75.8466 8.30679C74.0561 8.13202 73.7063 5.62355 75.3732 4.87306C75.826 4.66745 76.3508 4.69829 76.8653 4.9553Z" fill="white"/>
<path d="M75.2911 5.41786C75.2191 5.54123 75.2088 7.45343 75.2808 7.64876C75.3117 7.74129 75.4043 7.81325 75.4866 7.81325C75.5895 7.81325 75.6307 7.66932 75.6307 7.29922C75.6307 6.83659 75.6513 6.78519 75.8674 6.78519C76.032 6.78519 76.1761 6.92912 76.4024 7.29922C76.5877 7.60764 76.7729 7.81325 76.8861 7.81325C77.133 7.81325 77.1227 7.77213 76.742 7.21697C76.5156 6.88799 76.4539 6.73378 76.5465 6.70294C76.814 6.61042 77.0713 6.27115 77.0713 6.01414C77.0713 5.55151 76.742 5.3459 76.0011 5.3459C75.6307 5.3459 75.3117 5.37674 75.2911 5.41786ZM76.5362 5.74684C76.6185 5.78796 76.6597 5.94217 76.6391 6.07582C76.6082 6.29172 76.5465 6.32256 76.1246 6.3534L75.6307 6.38424V6.02442C75.6307 5.6646 75.641 5.65432 76.0217 5.65432C76.2275 5.65432 76.4642 5.69544 76.5362 5.74684Z" fill="white"/>
<path d="M25.4673 8.78997C25.4159 8.81053 25.0146 8.90306 24.5927 8.99558C21.9482 9.60214 19.6124 11.6274 18.6246 14.1976C18.0792 15.6163 17.8837 16.7163 17.8734 18.351C17.8631 20.6436 18.3262 22.3296 19.386 23.9334C20.5796 25.7325 22.3289 26.9559 24.5927 27.5727C25.3644 27.7783 25.704 27.8092 27.4738 27.8092C29.2231 27.8092 29.5833 27.7783 30.3139 27.583C32.1249 27.0792 33.6684 26.2465 34.9134 25.0642C35.7057 24.324 35.6955 24.1184 34.8928 23.5016C34.5636 23.2446 33.9668 22.6894 33.5757 22.2576C33.0818 21.7333 32.7834 21.4866 32.6291 21.4866C32.485 21.4866 32.1557 21.6922 31.8368 22.0006C30.7357 22.9978 29.3466 23.4707 27.5253 23.4604C25.8583 23.4502 24.6441 23.0184 23.8724 22.1342C23.4814 21.6922 22.9875 20.6847 22.8846 20.1192L22.8228 19.7389H29.2334C32.7628 19.7389 35.716 19.6977 35.7881 19.6463C36.1276 19.4304 36.2099 17.9397 35.963 16.3154C35.3765 12.4293 33.051 9.81803 29.3981 8.94418C28.7498 8.78997 28.2147 8.73857 27.0623 8.74885C26.2391 8.74885 25.5291 8.76941 25.4673 8.78997ZM28.2147 12.7583C28.9659 12.9125 29.892 13.4265 30.3241 13.92C30.7254 14.3724 31.137 15.1845 31.2399 15.7088L31.312 16.0378H27.1137H22.9257L22.9978 15.7088C23.3064 14.321 24.5001 13.1592 25.9818 12.7891C26.6404 12.6246 27.5253 12.6144 28.2147 12.7583Z" fill="white"/>
<path d="M62.871 8.88248C59.2181 9.69465 56.7485 12.2648 55.9768 16.0584C55.5137 18.2996 55.771 20.9108 56.6456 22.7819C57.8393 25.3726 60.0104 27.0484 62.9739 27.6549C63.9103 27.8503 64.2807 27.8708 65.7522 27.8297C66.9972 27.7886 67.6661 27.7166 68.2423 27.5624C70.0019 27.0998 71.5454 26.2568 72.7287 25.1259C73.6342 24.252 73.6342 24.2109 72.6567 23.3988C72.2039 23.0287 71.5968 22.4427 71.3087 22.1034C70.6399 21.3323 70.4649 21.3221 69.7138 22.0006C68.5922 23.0184 67.2545 23.4707 65.392 23.4604C62.7784 23.4502 61.2555 22.3296 60.7616 20.0678L60.6896 19.801H73.7268C74.1693 19.4823 74.0046 16.1098 73.4696 14.5471C73.3667 14.2387 73.0889 13.6219 72.8625 13.1901C71.6586 10.8872 69.7344 9.4582 67.059 8.89276C66.2049 8.70771 63.6839 8.70771 62.871 8.88248ZM66.0814 12.7583C66.7812 12.9125 67.5014 13.2723 68.0159 13.7349C68.4481 14.1359 69.1478 15.4004 69.1478 15.7911V16.0378H60.7925L60.8645 15.75C61.3996 13.5499 63.6633 12.2443 66.0814 12.7583Z" fill="white"/>
</svg>
